<?xml version="1.0" encoding="UTF-8" standalone="no"?><!DOCTYPE svg PUBLIC "-//W3C//DTD SVG 1.1//EN" "http://www.w3.org/Graphics/SVG/1.1/DTD/svg11.dtd"><svg width="100%" height="100%" viewBox="0 0 92 87" version="1.1" xmlns="http://www.w3.org/2000/svg" xmlns:xlink="http://www.w3.org/1999/xlink" xml:space="preserve" xmlns:serif="http://www.serif.com/" style="fill-rule:evenodd;clip-rule:evenodd;stroke-linecap:round;"><path d="M49.992,64.869l0,-42.994c0,-4.172 -5.048,-6.267 -8.001,-3.314l-9.375,9.375c-0.879,0.879 -2.071,1.373 -3.315,1.374l-7.434,-0c-1.243,-0 -2.435,0.494 -3.314,1.373c-0.88,0.879 -1.373,2.071 -1.373,3.314l-0,18.75c-0,1.243 0.493,2.436 1.373,3.315c0.879,0.879 2.071,1.373 3.314,1.373l7.434,-0c1.244,0 2.436,0.494 3.315,1.373l9.375,9.375c2.953,2.953 8.001,0.862 8.001,-3.314Z" style="fill:none;fill-rule:nonzero;stroke:#797bec;stroke-width:8.33px;"/><path d="M61.087,25.478c1.829,-1.828 4.833,-1.847 6.338,0.258c3.398,4.76 5.221,10.464 5.212,16.313c0.01,5.85 -1.813,11.556 -5.212,16.317c-1.5,2.109 -4.509,2.09 -6.338,0.258c-1.832,-1.829 -1.767,-4.782 -0.445,-7.004c1.72,-2.894 2.625,-6.2 2.62,-9.567c0,-3.497 -0.956,-6.768 -2.625,-9.567c-1.317,-2.226 -1.382,-5.175 0.45,-7.008Z" style="fill:#797bec;fill-rule:nonzero;"/><path d="M74.029,12.221c1.829,-1.829 4.819,-1.843 6.46,0.159c6.859,8.365 10.601,18.854 10.584,29.672c0.017,10.818 -3.725,21.306 -10.584,29.672c-1.641,2.001 -4.631,1.992 -6.46,0.159c-1.828,-1.828 -1.804,-4.781 -0.215,-6.825c5.122,-6.574 7.897,-14.672 7.884,-23.006c0,-8.672 -2.944,-16.655 -7.884,-23.006c-1.589,-2.039 -1.617,-4.993 0.215,-6.825Z" style="fill:#797bec;fill-rule:nonzero;"/></svg>