<?xml version="1.0" encoding="UTF-8" standalone="no"?><!DOCTYPE svg PUBLIC "-//W3C//DTD SVG 1.1//EN" "http://www.w3.org/Graphics/SVG/1.1/DTD/svg11.dtd"><svg width="100%" height="100%" viewBox="0 0 662 662" version="1.1" xmlns="http://www.w3.org/2000/svg" xmlns:xlink="http://www.w3.org/1999/xlink" xml:space="preserve" xmlns:serif="http://www.serif.com/" style="fill-rule:evenodd;clip-rule:evenodd;stroke-linejoin:round;stroke-miterlimit:2;"><ellipse cx="347.616" cy="544.652" rx="337.571" ry="86.897" style="fill:url(#_Radial1);"/><g><path d="M311.286,158.573c-23.039,17.214 -43.77,55.745 -48.372,104.992c-0.777,8.304 -14.62,3.079 -15.412,-21.456c20.827,-31.508 15.239,-41.809 -3.522,-29.519c-8.415,5.512 -22.332,24.123 -24.033,31.863c-6.392,29.084 32.458,54.728 27.233,108.436c-5.339,54.877 0.683,89.053 25.537,143.474c15.099,47.948 28.022,63.857 40.527,10.427c30.984,9.465 62.472,7.934 94.215,0.788c4.874,45.645 27.529,46.268 52.592,-43.138c2.285,-8.149 2.638,-23.651 6.736,-28.336c66.877,-76.46 106.719,-257.425 48.49,-283.669c-1.401,-0.632 -29.37,-16.877 -33.833,0.942c-4.458,17.8 20.808,51.207 24.549,79.288c8.079,60.645 -37.043,172.232 -36.98,169.34c0.885,-40.292 -3.424,-54.045 3.361,-80.703c16.442,-64.6 17.01,-72.251 10.987,-92.334c-5.973,-19.919 -17.163,-31.471 -27.105,-26.12c-8.736,4.701 14.538,36.212 0.871,54.341c-1.483,1.967 -2.586,-8.213 -3.207,-10.467c-13.664,-49.598 -39.19,-70.276 -43.207,-87.749c-6.512,4.635 -4.991,20.274 -14.459,25.916c-21.634,-7.5 -57.04,-8.488 -79.328,-1.097c2.039,-10.184 -1.922,-17.647 -5.64,-25.219Z" style="fill:url(#_Linear2);"/><path d="M303.427,167.996c-23.04,17.214 -43.77,55.745 -48.373,104.992c-0.776,8.304 -14.62,3.079 -15.412,-21.456c20.828,-31.508 15.24,-41.809 -3.522,-29.519c-8.414,5.512 -22.332,24.123 -24.033,31.863c-6.391,29.084 32.459,54.727 27.233,108.436c-5.339,54.877 0.684,89.053 25.538,143.474c15.098,47.948 28.022,63.857 40.526,10.427c30.985,9.465 62.472,7.933 94.216,0.788c4.873,45.645 27.528,46.268 52.592,-43.138c2.284,-8.15 2.638,-23.651 6.735,-28.336c66.877,-76.46 106.72,-257.425 48.491,-283.669c-1.402,-0.632 -29.371,-16.877 -33.833,0.942c-4.458,17.8 20.807,51.207 24.548,79.288c8.08,60.645 -37.043,172.232 -36.979,169.34c0.884,-40.292 -3.425,-54.045 3.36,-80.703c16.442,-64.6 17.01,-72.251 10.988,-92.334c-5.974,-19.919 -17.163,-31.471 -27.106,-26.12c-8.735,4.701 14.539,36.212 0.872,54.341c-1.484,1.967 -2.587,-8.213 -3.208,-10.467c-13.664,-49.598 -39.189,-70.276 -43.206,-87.75c-6.513,4.636 -4.991,20.275 -14.46,25.917c-21.634,-7.5 -57.039,-8.488 -79.328,-1.097c2.039,-10.184 -1.921,-17.647 -5.639,-25.219Z" style="fill:url(#_Linear3);"/><path d="M313.407,160.74c-22.961,17.318 -43.516,55.943 -47.894,105.21c-0.739,8.308 -14.606,3.146 -15.51,-21.385c20.684,-31.603 15.05,-41.878 -3.656,-29.503c-8.389,5.55 -22.222,24.224 -23.888,31.972c-6.259,29.113 32.708,54.58 27.727,108.311c-5.09,54.901 1.088,89.049 26.189,143.357c15.317,47.879 28.313,63.728 40.574,10.242c31.027,9.324 62.507,7.649 94.218,0.36c5.081,45.621 27.739,46.142 52.395,-43.378c2.248,-8.159 2.531,-23.662 6.607,-28.365c66.528,-76.764 105.547,-257.909 47.199,-283.888c-1.405,-0.625 -29.447,-16.743 -33.829,1.097c-4.376,17.82 21.041,51.111 24.91,79.175c8.355,60.607 -36.259,172.398 -36.209,169.506c0.701,-40.295 -3.67,-54.029 2.993,-80.717c16.148,-64.675 16.681,-72.328 10.568,-92.383c-6.065,-19.892 -17.306,-31.393 -27.225,-25.997c-8.714,4.741 14.704,36.146 1.119,54.337c-1.474,1.974 -2.624,-8.201 -3.255,-10.453c-13.89,-49.535 -39.509,-70.096 -43.605,-87.551c-6.491,4.664 -4.899,20.296 -14.342,25.981c-21.667,-7.401 -57.077,-8.228 -79.332,-0.736c1.993,-10.193 -2.001,-17.637 -5.754,-25.192Z" style="fill:url(#_Linear4);"/><path d="M321.873,155.393c-23.551,16.506 -45.443,54.389 -51.539,103.474c-1.028,8.277 -14.707,2.633 -14.753,-21.914c21.775,-30.862 16.502,-41.327 -2.624,-29.613c-8.578,5.254 -23.054,23.433 -24.99,31.118c-7.272,28.877 30.782,55.689 23.927,109.214c-7.004,54.689 -2.022,89.032 21.167,144.183c13.635,48.385 26.07,64.679 40.191,11.653c30.683,10.403 62.203,9.828 94.149,3.65c3.484,45.772 26.11,47.083 53.877,-41.521c2.532,-8.076 3.356,-23.559 7.594,-28.117c69.169,-74.394 114.49,-254.066 57.085,-282.066c-1.382,-0.674 -28.844,-17.761 -33.846,-0.086c-4.997,17.656 19.242,51.815 22.129,79.997c6.233,60.862 -42.258,171.027 -42.107,168.138c2.108,-40.246 -1.781,-54.124 5.81,-80.563c18.397,-64.071 19.197,-71.701 13.788,-91.958c-5.366,-20.091 -16.199,-31.978 -26.3,-26.931c-8.874,4.433 13.432,36.637 -0.779,54.342c-1.543,1.921 -2.336,-8.287 -2.889,-10.559c-12.151,-49.991 -37.036,-71.434 -40.52,-89.022c-6.651,4.435 -5.605,20.114 -15.241,25.465c-21.396,-8.153 -56.755,-10.217 -79.258,-3.506c2.348,-10.117 -1.384,-17.696 -4.871,-25.378Z" style="fill:url(#_Linear5);"/><path d="M305.791,162.787c-23.552,16.505 -45.443,54.389 -51.54,103.474c-1.028,8.277 -14.706,2.633 -14.752,-21.915c21.774,-30.861 16.502,-41.326 -2.624,-29.612c-8.579,5.254 -23.055,23.433 -24.99,31.118c-7.272,28.877 30.781,55.689 23.927,109.213c-7.004,54.69 -2.022,89.033 21.167,144.184c13.635,48.385 26.069,64.679 40.191,11.653c30.683,10.403 62.202,9.828 94.148,3.65c3.485,45.772 26.111,47.083 53.878,-41.521c2.531,-8.076 3.356,-23.559 7.594,-28.118c69.168,-74.393 114.489,-254.065 57.084,-282.066c-1.382,-0.674 -28.844,-17.76 -33.846,-0.085c-4.997,17.656 19.243,51.815 22.129,79.997c6.234,60.862 -42.258,171.027 -42.106,168.138c2.107,-40.246 -1.782,-54.124 5.81,-80.563c18.397,-64.071 19.197,-71.701 13.787,-91.958c-5.366,-20.091 -16.199,-31.978 -26.299,-26.932c-8.875,4.434 13.431,36.638 -0.78,54.343c-1.542,1.921 -2.336,-8.288 -2.888,-10.56c-12.151,-49.99 -37.037,-71.433 -40.521,-89.021c-6.65,4.435 -5.604,20.113 -15.24,25.465c-21.396,-8.153 -56.755,-10.217 -79.258,-3.506c2.347,-10.117 -1.385,-17.697 -4.871,-25.378Z" style="fill:url(#_Linear6);"/><path d="M308.013,158.899c-23.343,16.798 -44.76,54.952 -50.244,104.109c-0.924,8.289 -14.672,2.817 -15.025,-21.729c21.388,-31.13 15.985,-41.529 -2.993,-29.577c-8.512,5.36 -22.76,23.719 -24.599,31.428c-6.911,28.965 31.474,55.3 25.288,108.906c-6.321,54.772 -0.91,89.051 22.965,143.908c14.238,48.211 26.875,64.348 40.334,11.15c30.81,10.019 62.32,9.051 94.186,2.475c4.056,45.724 26.696,46.753 53.355,-42.19c2.43,-8.108 3.062,-23.6 7.242,-28.211c68.235,-75.251 111.31,-255.475 53.56,-282.756c-1.391,-0.657 -29.064,-17.4 -33.845,0.337c-4.776,17.717 19.888,51.571 23.126,79.714c6.993,60.78 -40.12,171.541 -40.004,168.651c1.605,-40.27 -2.457,-54.098 4.804,-80.63c17.595,-64.296 18.3,-71.935 12.638,-92.122c-5.616,-20.023 -16.597,-31.774 -26.634,-26.602c-8.818,4.544 13.888,36.467 -0.101,54.348c-1.518,1.941 -2.439,-8.257 -3.02,-10.522c-12.774,-49.835 -37.925,-70.966 -41.629,-88.509c-6.594,4.518 -5.353,20.182 -14.921,25.653c-21.496,-7.885 -56.878,-9.507 -79.295,-2.516c2.221,-10.146 -1.606,-17.678 -5.188,-25.315Z" style="fill:url(#_Linear7);"/><path d="M309.543,158.517c-22.97,17.306 -43.546,55.919 -47.951,105.185c-0.743,8.307 -14.607,3.137 -15.497,-21.394c20.7,-31.592 15.071,-41.87 -3.641,-29.505c-8.392,5.546 -22.235,24.212 -23.905,31.959c-6.275,29.11 32.678,54.597 27.668,108.326c-5.119,54.898 1.041,89.05 26.113,143.371c15.291,47.887 28.278,63.744 40.568,10.264c31.023,9.341 62.503,7.683 94.218,0.41c5.056,45.625 27.714,46.157 52.418,-43.349c2.252,-8.158 2.544,-23.661 6.622,-28.362c66.57,-76.728 105.686,-257.852 47.352,-283.862c-1.404,-0.626 -29.438,-16.759 -33.829,1.078c-4.387,17.818 21.013,51.123 24.867,79.189c8.322,60.612 -36.352,172.379 -36.3,169.487c0.723,-40.296 -3.642,-54.031 3.036,-80.716c16.183,-64.666 16.72,-72.319 10.617,-92.377c-6.053,-19.896 -17.289,-31.402 -27.21,-26.012c-8.716,4.737 14.684,36.154 1.09,54.337c-1.476,1.974 -2.62,-8.202 -3.25,-10.454c-13.863,-49.542 -39.471,-70.117 -43.558,-87.575c-6.494,4.661 -4.909,20.294 -14.356,25.974c-21.663,-7.413 -57.072,-8.259 -79.331,-0.779c1.998,-10.191 -1.992,-17.638 -5.741,-25.195Z" style="fill:url(#_Linear8);"/><path d="M464.278,438.933l-0.004,0.013l-0.001,0l0.005,-0.013Zm13.931,-63.127c-3.672,10.499 -6.766,18.458 -8.491,22.53c-0.433,17.251 -2.116,31.516 -5.327,40.293c0.499,-1.318 1.079,-2.416 1.765,-3.207c10.325,-11.901 19.99,-26.313 28.729,-42.261c-8.402,1.761 -13.833,-4.362 -16.676,-17.355Zm-19.986,-123.511c-0.631,1.48 -1.436,2.902 -2.444,4.251c-0.308,0.411 -0.6,0.295 -0.877,-0.167c5.808,24.88 10.388,56.3 12.873,86.474c0.429,-6.959 1.438,-13.985 3.507,-22.255c3.248,-12.978 5.866,-23.66 7.926,-32.608c-3.451,-0.261 -7.069,-2.677 -9.887,-9.657c-3.675,-9.1 -7.534,-18.048 -11.098,-26.038Zm-9.69,-18.872c1.591,4.733 3.127,10.01 4.595,15.717c-0.232,-1.319 -0.433,-2.457 -0.599,-3.048c-1.245,-4.449 -2.584,-8.664 -3.996,-12.669Z" style="fill:#787bf1;"/><path d="M248.948,209.175c-7.701,6.284 -26.262,24.034 -23.379,47.2c3.428,27.542 26.449,23.189 36.648,62.627c8.06,31.171 12.094,95.63 21.65,114.061c37.128,71.609 122.053,64.224 168.736,53.707c-21.894,66.018 -40.908,61.681 -45.487,20.363c-31.715,7.273 -63.195,8.931 -94.218,-0.41c-12.29,53.48 -25.277,37.623 -40.568,-10.264c-25.072,-54.321 -31.232,-88.473 -26.113,-143.371c5.01,-53.729 -33.943,-79.216 -27.668,-108.326c1.67,-7.747 15.513,-26.413 23.905,-31.959c2.386,-1.577 4.559,-2.785 6.494,-3.628Z" style="fill:url(#_Linear9);"/><path d="M248.948,209.175c-1.037,0.46 -2.141,1.027 -3.31,1.699c-1.005,0.579 -2.058,1.236 -3.155,1.973c-4.023,2.7 -9.29,8.458 -13.845,14.565c-4.865,6.52 -8.924,13.432 -9.754,17.422c-4.623,22.217 17.082,42.12 25.56,74.167c2.664,10.069 4.04,21.321 2.936,34.196c-2.395,28.031 -1.903,50.609 2.607,73.218c4.274,21.43 12.165,42.873 24.528,69.035c0.041,0.09 0.077,0.183 0.107,0.277c1.171,3.552 2.328,6.925 3.471,10.105c0.428,0.193 1.113,0.532 2.131,1.06c0.427,0.222 0.567,0.685 0.646,1.196c0.585,0.435 0.796,0.663 0.05,0.355l-0.008,-0.063l-0.042,-0.292c-0.678,-0.506 -1.858,-1.291 -2.627,-1.839l0.329,0.909c0.025,0.066 0.01,0.167 0.073,0.199c1.131,0.571 1.854,0.914 2.275,1.086c0.043,0.352 0.082,0.705 0.186,1c2.984,8.489 5.866,15.362 8.719,20.238c1.729,2.956 3.339,5.137 5.028,6.279c0.776,0.525 1.525,0.769 2.288,0.345c1.75,-0.971 3.331,-3.3 5.063,-6.892c2.539,-5.266 5.059,-12.969 7.599,-23.401c0.197,-0.857 0.74,-1.594 1.5,-2.035c0.76,-0.442 1.669,-0.549 2.511,-0.295c15.234,4.759 30.607,6.84 46.09,6.79c15.471,-0.049 31.036,-2.214 46.668,-5.713c0.677,-0.155 1.388,-0.014 1.954,0.388c0.567,0.402 0.935,1.027 1.011,1.718c1.224,11.589 3.546,20.173 6.899,24.891c2.054,2.89 4.481,4.114 7.33,2.97c2.408,-0.967 4.967,-3.268 7.737,-6.916c5.57,-7.338 11.697,-19.866 18.144,-38.415c-29.936,6.236 -73.553,10.523 -110.863,-4.545c-22.265,-8.991 -42.306,-24.846 -55.87,-51.293c-2.491,-4.857 -4.608,-12.848 -6.493,-22.579c-5.308,-27.401 -8.885,-68.735 -14.751,-91.835c-2.197,-8.651 -5.02,-15.189 -8.126,-20.418c-11.066,-18.632 -25.631,-20.806 -28.213,-42.321c-1.203,-10.022 1.576,-19.02 5.758,-26.517c5.511,-9.88 13.453,-17.149 17.857,-20.711l0.002,-0.001l-0,-0l-0,-0l-0.002,0.001c-4.366,3.595 -12.233,10.917 -17.647,20.827c-4.082,7.47 -6.771,16.414 -5.491,26.342c2.761,21.42 17.345,23.427 28.537,41.9c3.193,5.271 6.115,11.869 8.418,20.616c6.07,23.057 10.014,64.374 15.564,91.739c1.921,9.472 4.022,17.255 6.493,21.969c13.481,25.723 33.176,41.07 55.01,49.657c38.224,15.035 82.95,9.411 112.345,2.645c0.685,-0.154 1.4,0.072 1.871,0.592c0.471,0.521 0.626,1.254 0.405,1.92c-6.853,21.004 -13.493,34.991 -19.475,43.036c-3.352,4.509 -6.584,7.227 -9.525,8.443c-4.838,2.001 -9.186,0.464 -12.74,-4.428c-3.444,-4.739 -6.131,-13.066 -7.674,-24.324c-15.079,3.389 -30.111,5.45 -45.075,5.73c-14.963,0.28 -29.864,-1.23 -44.692,-5.164c-3.242,14.066 -6.707,23.081 -10.189,27.848c-2.499,3.421 -5.229,4.975 -7.837,5.311c-2.908,0.376 -5.987,-0.762 -9.035,-3.722c-4.792,-4.654 -9.96,-14.751 -15.306,-29.009c0.183,-0.3 0.494,-0.939 0.989,-2.058c0.022,-0.05 -0.036,-0.103 -0.054,-0.155l-0.36,-1.058c-0.141,0.701 -0.546,2.109 -0.713,2.904l0.138,0.367c-0.257,0.427 -0.252,0.169 -0.138,-0.367l-0.002,-0.005c-0.127,-0.342 -0.529,-0.693 -0.383,-1.033c0.529,-1.234 0.839,-1.888 1.002,-2.148c-1.092,-3.224 -2.194,-6.641 -3.307,-10.239c-12.007,-26.663 -19.545,-48.502 -23.505,-70.245c-4.178,-22.941 -4.376,-45.776 -1.516,-74.087c1.269,-12.59 0.086,-23.628 -2.378,-33.526c-8.029,-32.256 -29.415,-52.554 -24.461,-74.764c0.898,-4.029 5.087,-10.984 10.108,-17.517c4.659,-6.061 10.027,-11.763 14.102,-14.414c1.109,-0.722 2.173,-1.365 3.187,-1.93c1.179,-0.657 2.292,-1.208 3.336,-1.654l-0,-0Z" style="fill:#5d5fee;fill-opacity:0.32;"/><ellipse cx="359.04" cy="425.027" rx="61.155" ry="71.939" style="fill:url(#_Linear10);"/><path d="M286.176,239.721c-0,-0 4.417,-4.614 9.645,-7.782c2.124,-1.287 4.377,-2.282 6.533,-2.328l32.924,10.661c0.553,0.26 1.213,0.022 1.474,-0.531c0.26,-0.553 0.023,-1.214 -0.531,-1.474c0,-0 -6.1,-3.906 -13.284,-7.751c-3.049,-1.632 -6.256,-3.244 -9.267,-4.506c-2.341,-0.982 -4.565,-1.724 -6.419,-2.221c-2.486,-0.666 -4.462,-0.847 -5.567,-0.682c-3.089,0.575 -6.261,2.281 -8.938,4.718c-4.919,4.481 -8.36,10.589 -8.36,10.589c-0.36,0.493 -0.252,1.187 0.241,1.548c0.494,0.36 1.188,0.252 1.549,-0.241Z" style="fill:#484bec;"/><path d="M375.202,213.178c-0,0 8.946,-3.948 17.395,-6.451c4.351,-1.289 8.471,-2.449 11.003,-1.904c3.631,0.764 6.523,2.048 8.783,3.525c4.796,3.135 6.794,6.758 6.794,6.758c0.242,0.561 0.894,0.821 1.456,0.579c0.561,-0.242 0.821,-0.894 0.579,-1.456c-0,0 -1.555,-4.523 -6.428,-8.976c-2.361,-2.157 -5.505,-4.197 -9.606,-5.772c-3.087,-1.17 -8.519,-0.963 -14.232,-0.063c-9.269,1.461 -19.18,4.735 -19.18,4.735c-2.491,0.949 -3.743,3.74 -2.795,6.231c0.949,2.491 3.74,3.743 6.231,2.794Z" style="fill:#484bec;"/><path d="M337.478,296.079c3.855,0.484 2.824,4.863 15.412,-6.482c4.558,11.274 7.423,8.841 15.436,4.651c-0,0 -0.205,27.493 -15.436,26.93c-16.103,-0.595 -15.412,-25.099 -15.412,-25.099Z" style="fill:url(#_Linear11);"/><path d="M350.331,276.416l-0,-0l0.25,10.866c-2.099,2.756 -4.112,4.758 -6.047,6.058c-1.906,1.28 -3.66,1.917 -5.323,1.782c-2.937,-0.241 -5.393,-2.526 -7.326,-6.404c-0.136,-0.325 -0.51,-0.478 -0.835,-0.341c-0.324,0.136 -0.477,0.51 -0.341,0.834c2.233,6.452 6.348,9.458 11.431,8.658c2.78,-0.438 5.91,-2.142 9.317,-5.271c1.498,4.298 4.712,5.834 8.453,5.709c6.359,-0.214 14.595,-6.003 17.027,-10.13c0.196,-0.293 0.117,-0.689 -0.175,-0.885c-0.292,-0.196 -0.689,-0.117 -0.885,0.175c-2.556,3.379 -10.294,7.727 -15.909,7.349c-2.976,-0.2 -4.949,-2.217 -4.78,-7.098l0.167,-11.292l0.001,-0.02l-0.001,-0l0.001,-0.011c-0.006,-1.385 -1.132,-2.505 -2.518,-2.502c-1.386,0.003 -2.507,1.127 -2.507,2.513l0,0.01Z" style="fill:#484bec;"/><path d="M352.383,272.132c3.929,-0 7.93,-0.656 7.93,1.703c0,2.359 -3.663,7.521 -7.592,7.521c-3.929,-0 -7.254,-4.486 -7.254,-6.845c-0,-2.358 2.987,-2.379 6.916,-2.379Z" style="fill:#484bec;"/><ellipse cx="314.666" cy="261.756" rx="24.534" ry="19.357" style="fill:url(#_Radial12);"/><path d="M302.503,278.565c-1.502,-0.644 -2.912,-1.405 -4.213,-2.26c-5.31,-3.494 -8.773,-8.633 -9.034,-14.549c-0.343,-6.173 2.848,-11.829 8.043,-15.959c4.511,-3.586 10.576,-5.891 17.367,-6.314c3.924,0.587 7.449,1.703 10.641,3.375c2.223,1.165 4.185,2.506 5.956,4.035c1.742,1.504 3.228,3.14 4.447,4.914l0.228,0.276c2.225,2.765 3.391,6.132 3.45,9.673c0.022,5.815 -3.16,11.074 -8.265,14.663c-4.371,3.073 -10.148,4.907 -16.457,4.884c-4.435,-0.078 -8.602,-1.048 -12.163,-2.738Zm33.207,-26.758c-1.355,-1.611 -3.059,-2.997 -5.021,-4.098c-2.351,-1.32 -5.033,-2.13 -7.942,-2.558c-2.599,-0.383 -5.267,-0.26 -8.081,0.165c-5.75,-0.359 -11.103,0.922 -15.253,3.489c-4.876,3.015 -8.108,7.618 -8.404,12.951c-0.246,5.583 2.614,10.762 7.413,14.361c1.241,0.931 2.609,1.752 4.081,2.448c3.609,1.552 7.748,2.435 12.163,2.357c6.21,-0.023 11.862,-1.895 16.164,-4.919c4.983,-3.504 8.16,-8.572 8.181,-14.247c0.058,-3.496 -1.161,-6.735 -3.1,-9.653l-0.201,-0.296Z" style="fill:url(#_Linear13);"/><ellipse cx="386.859" cy="249.989" rx="24.534" ry="31.123" style="fill:url(#_Radial14);"/><path d="M365.176,235.412c0.1,-0.264 0.204,-0.526 0.309,-0.785c0.404,-0.994 0.828,-1.96 1.276,-2.906c1.113,-2.353 2.403,-4.493 3.904,-6.431c4.136,-5.34 9.721,-8.65 16.194,-9.424c8.08,0.412 15.218,5.014 19.866,12.355c3.744,5.914 5.941,13.51 5.573,21.768c-0.282,8.054 -2.942,15.281 -7.001,20.766c-1.433,1.936 -3.043,3.654 -4.8,5.102c-3.861,3.388 -8.575,5.372 -13.638,5.448c-7.356,0.026 -14.002,-4.011 -18.544,-10.475c-3.89,-5.536 -6.22,-12.85 -6.198,-20.841c0.075,-5.279 1.066,-10.291 3.059,-14.577Zm35.321,40.445c1.705,-1.495 3.244,-3.263 4.573,-5.261c3.675,-5.523 5.692,-12.776 5.418,-20.607c-0.34,-7.631 -2.881,-14.493 -6.846,-19.604c-4.285,-5.523 -10.282,-8.85 -16.783,-8.519c-3.333,-0.421 -6.567,-0.031 -9.597,1.333c-3.111,1.4 -5.967,3.532 -8.35,6.369c-1.37,1.631 -2.587,3.456 -3.564,5.478l-0.172,0.366c-1.685,4.394 -2.722,9.324 -2.641,14.577c0.021,7.885 2.386,15.067 6.22,20.532c4.448,6.34 10.894,10.374 18.104,10.399c5.03,0.076 9.7,-1.813 13.638,-5.063Z" style="fill:url(#_Linear15);"/><path d="M321.749,253.423l6.141,-0l0,20.614l-6.141,0c-7.727,0 -14,-4.618 -14,-10.307c-0,-5.689 6.273,-10.307 14,-10.307Z" style="fill:url(#_Linear16);"/><path d="M387.484,248.888c-2.173,-0 -6.141,-0 -6.141,-0l0,21.631l6.141,0c7.727,0 14,-4.846 14,-10.815c0,-5.97 -6.273,-10.816 -14,-10.816Z" style="fill:url(#_Linear17);"/><ellipse cx="327.89" cy="263.73" rx="8.922" ry="10.307" style="fill:url(#_Linear18);"/><ellipse cx="381.343" cy="259.704" rx="7.859" ry="10.816" style="fill:#484bec;"/><ellipse cx="327.89" cy="263.73" rx="7.859" ry="10.307" style="fill:#484bec;"/><ellipse cx="353.293" cy="535.924" rx="231.913" ry="37.202" style="fill:url(#_Radial19);"/></g><path d="M15.868,80.868c-0,-14.852 12.058,-26.91 26.91,-26.91l148.175,-0c14.852,-0 26.91,12.058 26.91,26.91l-0,53.82c-0,14.852 -12.058,26.91 -26.91,26.91l-38.738,-0l25.249,46.131l-55.549,-46.131l-79.137,-0c-14.852,-0 -26.91,-12.058 -26.91,-26.91l-0,-53.82Z" style="fill:#fff;"/><text x="40.651px" y="123.002px" style="font-family:'Arial-BoldItalicMT', 'Arial', sans-serif;font-weight:700;font-style:italic;font-size:50px;fill:#7577f1;">#u%lf!</text><defs><radialGradient id="_Radial1" cx="0" cy="0" r="1" gradientUnits="userSpaceOnUse" gradientTransform="matrix(301.74,-5.32645e-13,2.68863e-14,77.6729,347.616,544.652)"><stop offset="0" style="stop-color:#fff;stop-opacity:1"/><stop offset="0.11" style="stop-color:#fff;stop-opacity:0.9"/><stop offset="0.56" style="stop-color:#fff;stop-opacity:0.62"/><stop offset="1" style="stop-color:#fff;stop-opacity:0"/></radialGradient><linearGradient id="_Linear2" x1="0" y1="0" x2="1" y2="0" gradientUnits="userSpaceOnUse" gradientTransform="matrix(176.284,-199.467,227.013,200.628,298.526,433.161)"><stop offset="0" style="stop-color:#9899f5;stop-opacity:0.33"/><stop offset="0.5" style="stop-color:#bebef8;stop-opacity:0.33"/><stop offset="1" style="stop-color:#e4e5fc;stop-opacity:0.33"/></linearGradient><linearGradient id="_Linear3" x1="0" y1="0" x2="1" y2="0" gradientUnits="userSpaceOnUse" gradientTransform="matrix(176.284,-199.467,227.013,200.628,290.667,442.584)"><stop offset="0" style="stop-color:#9899f5;stop-opacity:0.33"/><stop offset="0.5" style="stop-color:#bebef8;stop-opacity:0.33"/><stop offset="1" style="stop-color:#e4e5fc;stop-opacity:0.33"/></linearGradient><linearGradient id="_Linear4" x1="0" y1="0" x2="1" y2="0" gradientUnits="userSpaceOnUse" gradientTransform="matrix(175.375,-200.268,227.924,199.593,301.897,435.383)"><stop offset="0" style="stop-color:#9899f5;stop-opacity:0.33"/><stop offset="0.5" style="stop-color:#bebef8;stop-opacity:0.33"/><stop offset="1" style="stop-color:#e4e5fc;stop-opacity:0.33"/></linearGradient><linearGradient id="_Linear5" x1="0" y1="0" x2="1" y2="0" gradientUnits="userSpaceOnUse" gradientTransform="matrix(182.262,-194.021,220.814,207.432,300.778,429.466)"><stop offset="0" style="stop-color:#9899f5;stop-opacity:0.16"/><stop offset="0.5" style="stop-color:#bebef8;stop-opacity:0.16"/><stop offset="1" style="stop-color:#e4e5fc;stop-opacity:0.16"/></linearGradient><linearGradient id="_Linear6" x1="0" y1="0" x2="1" y2="0" gradientUnits="userSpaceOnUse" gradientTransform="matrix(182.262,-194.021,220.814,207.432,284.696,436.86)"><stop offset="0" style="stop-color:#9899f5;stop-opacity:0.16"/><stop offset="0.5" style="stop-color:#bebef8;stop-opacity:0.16"/><stop offset="1" style="stop-color:#e4e5fc;stop-opacity:0.16"/></linearGradient><linearGradient id="_Linear7" x1="0" y1="0" x2="1" y2="0" gradientUnits="userSpaceOnUse" gradientTransform="matrix(179.826,-196.281,223.387,204.659,290.341,433.214)"><stop offset="0" style="stop-color:#9899f5;stop-opacity:0.33"/><stop offset="0.5" style="stop-color:#bebef8;stop-opacity:0.33"/><stop offset="1" style="stop-color:#e4e5fc;stop-opacity:0.33"/></linearGradient><linearGradient id="_Linear8" x1="0" y1="0" x2="1" y2="0" gradientUnits="userSpaceOnUse" gradientTransform="matrix(175.482,-200.173,227.817,199.716,297.885,433.154)"><stop offset="0" style="stop-color:#9899f5;stop-opacity:1"/><stop offset="0.5" style="stop-color:#bebef8;stop-opacity:1"/><stop offset="1" style="stop-color:#e4e5fc;stop-opacity:1"/></linearGradient><linearGradient id="_Linear9" x1="0" y1="0" x2="1" y2="0" gradientUnits="userSpaceOnUse" gradientTransform="matrix(72.4247,-335.429,473.05,102.139,217.863,467.176)"><stop offset="0" style="stop-color:#484bec;stop-opacity:0.39"/><stop offset="0.49" style="stop-color:#5759ee;stop-opacity:0.39"/><stop offset="1" style="stop-color:#8182f3;stop-opacity:0.39"/></linearGradient><linearGradient id="_Linear10" x1="0" y1="0" x2="1" y2="0" gradientUnits="userSpaceOnUse" gradientTransform="matrix(-97.3425,8.07491,-9.49888,-114.508,409.679,416.952)"><stop offset="0" style="stop-color:#e5e6ff;stop-opacity:0.52"/><stop offset="1" style="stop-color:#eaeafd;stop-opacity:0.52"/></linearGradient><linearGradient id="_Linear11" x1="0" y1="0" x2="1" y2="0" gradientUnits="userSpaceOnUse" gradientTransform="matrix(-0.199923,-23.111,21.8331,-0.188868,351.425,318.739)"><stop offset="0" style="stop-color:#8688f2;stop-opacity:1"/><stop offset="1" style="stop-color:#3539ea;stop-opacity:1"/></linearGradient><radialGradient id="_Radial12" cx="0" cy="0" r="1" gradientUnits="userSpaceOnUse" gradientTransform="matrix(-3.07504,-24.8431,42.6391,-1.79163,314.666,261.756)"><stop offset="0" style="stop-color:#fff;stop-opacity:1"/><stop offset="0.59" style="stop-color:#5d5fee;stop-opacity:1"/><stop offset="0.8" style="stop-color:#8b8cf3;stop-opacity:1"/><stop offset="1" style="stop-color:#b8b9f8;stop-opacity:1"/></radialGradient><linearGradient id="_Linear13" x1="0" y1="0" x2="1" y2="0" gradientUnits="userSpaceOnUse" gradientTransform="matrix(49.067,0,0,38.7133,290.133,261.756)"><stop offset="0" style="stop-color:#696af1;stop-opacity:1"/><stop offset="0.84" style="stop-color:#bebef8;stop-opacity:1"/><stop offset="1" style="stop-color:#d5d6fb;stop-opacity:1"/></linearGradient><radialGradient id="_Radial14" cx="0" cy="0" r="1" gradientUnits="userSpaceOnUse" gradientTransform="matrix(-3.07504,-39.9448,42.6391,-2.88073,386.859,249.989)"><stop offset="0" style="stop-color:#fff;stop-opacity:1"/><stop offset="0.59" style="stop-color:#5d5fee;stop-opacity:1"/><stop offset="0.8" style="stop-color:#8b8cf3;stop-opacity:1"/><stop offset="1" style="stop-color:#b8b9f8;stop-opacity:1"/></radialGradient><linearGradient id="_Linear15" x1="0" y1="0" x2="1" y2="0" gradientUnits="userSpaceOnUse" gradientTransform="matrix(49.067,0,0,62.2466,362.326,249.989)"><stop offset="0" style="stop-color:#d7d7fb;stop-opacity:1"/><stop offset="0.21" style="stop-color:#b9b9f8;stop-opacity:1"/><stop offset="0.43" style="stop-color:#999af5;stop-opacity:1"/><stop offset="1" style="stop-color:#8a8bf4;stop-opacity:1"/></linearGradient><linearGradient id="_Linear16" x1="0" y1="0" x2="1" y2="0" gradientUnits="userSpaceOnUse" gradientTransform="matrix(28.0007,0,0,20.6146,307.749,263.73)"><stop offset="0" style="stop-color:#fff;stop-opacity:1"/><stop offset="1" style="stop-color:#484bec;stop-opacity:0.41"/></linearGradient><linearGradient id="_Linear17" x1="0" y1="0" x2="1" y2="0" gradientUnits="userSpaceOnUse" gradientTransform="matrix(-28.0007,0,0,21.6312,401.484,259.704)"><stop offset="0" style="stop-color:#fff;stop-opacity:1"/><stop offset="1" style="stop-color:#484bec;stop-opacity:0.41"/></linearGradient><linearGradient id="_Linear18" x1="0" y1="0" x2="1" y2="0" gradientUnits="userSpaceOnUse" gradientTransform="matrix(17.8449,0,0,20.6146,318.968,263.73)"><stop offset="0" style="stop-color:#fff;stop-opacity:1"/><stop offset="1" style="stop-color:#484bec;stop-opacity:0.41"/></linearGradient><radialGradient id="_Radial19" cx="0" cy="0" r="1" gradientUnits="userSpaceOnUse" gradientTransform="matrix(207.297,-2.28037e-13,1.8471e-14,33.2534,353.293,535.924)"><stop offset="0" style="stop-color:#484bec;stop-opacity:1"/><stop offset="0.72" style="stop-color:#484bec;stop-opacity:0.15"/><stop offset="1" style="stop-color:#484bec;stop-opacity:0"/></radialGradient></defs></svg>