<?xml version="1.0" encoding="UTF-8" standalone="no"?><!DOCTYPE svg PUBLIC "-//W3C//DTD SVG 1.1//EN" "http://www.w3.org/Graphics/SVG/1.1/DTD/svg11.dtd"><svg width="100%" height="100%" viewBox="0 0 237 331" version="1.1" xmlns="http://www.w3.org/2000/svg" xmlns:xlink="http://www.w3.org/1999/xlink" xml:space="preserve" xmlns:serif="http://www.serif.com/" style="fill-rule:evenodd;clip-rule:evenodd;stroke-linecap:round;stroke-linejoin:round;"><path d="M57.986,137.055l0,-64.693c0,-29.134 24.048,-56.614 60.126,-56.614c36.079,0 60.126,27.496 60.126,56.614l-0,64.693" style="fill:none;fill-rule:nonzero;stroke:#797bec;stroke-width:31.5px;"/><path d="M0,147.921l0,122.945c0,42.362 65.575,51.969 118.11,51.969c52.536,-0 118.11,-9.591 118.11,-51.985l0,-122.929c-0.001,-2.065 -0.411,-4.11 -1.203,-6.017c-0.793,-1.907 -1.954,-3.639 -3.417,-5.097c-1.461,-1.458 -3.198,-2.614 -5.107,-3.401c-1.909,-0.787 -3.956,-1.19 -6.021,-1.186l-204.724,0c-8.693,0 -15.748,7.008 -15.748,15.701Zm94.488,72.599c0,7.496 3.26,14.236 8.441,18.866l0,24.441c0,4.176 1.659,8.182 4.613,11.135c2.953,2.953 6.958,4.613 11.135,4.613l2.252,-0c4.177,-0 8.182,-1.66 11.136,-4.613c2.953,-2.953 4.612,-6.959 4.612,-11.135l0,-24.457c3.144,-2.816 5.534,-6.372 6.953,-10.346c1.418,-3.975 1.82,-8.241 1.169,-12.411c-0.651,-4.17 -2.334,-8.111 -4.897,-11.463c-2.563,-3.355 -5.923,-6.013 -9.776,-7.736c-3.852,-1.723 -8.075,-2.455 -12.282,-2.129c-4.208,0.326 -8.267,1.698 -11.809,3.992c-3.542,2.295 -6.454,5.44 -8.471,9.147c-2.016,3.707 -3.074,7.875 -3.076,12.096Z" style="fill:#797bec;"/></svg>