<?xml version="1.0" encoding="UTF-8" standalone="no"?><!DOCTYPE svg PUBLIC "-//W3C//DTD SVG 1.1//EN" "http://www.w3.org/Graphics/SVG/1.1/DTD/svg11.dtd"><svg width="100%" height="100%" viewBox="0 0 201 201" version="1.1" xmlns="http://www.w3.org/2000/svg" xmlns:xlink="http://www.w3.org/1999/xlink" xml:space="preserve" xmlns:serif="http://www.serif.com/" style="fill-rule:evenodd;clip-rule:evenodd;stroke-linecap:round;stroke-linejoin:round;stroke-miterlimit:1.5;"><g><path d="M30.954,147.233c0.596,-1.986 6.155,-14.892 6.155,-14.892" style="fill:none;stroke:#fff;stroke-width:12.5px;"/><path d="M17.452,177.612c0.596,-1.986 6.156,-14.892 6.156,-14.892" style="fill:none;stroke:#fff;stroke-width:12.5px;"/><path d="M57.164,152.196c0.595,-1.985 6.155,-14.891 6.155,-14.891" style="fill:none;stroke:#fff;stroke-width:12.5px;"/><path d="M43.662,182.576c0.595,-1.986 6.155,-14.892 6.155,-14.892" style="fill:none;stroke:#fff;stroke-width:12.5px;"/><path d="M89.33,144.751c0.595,-1.986 6.155,-14.892 6.155,-14.892" style="fill:none;stroke:#fff;stroke-width:12.5px;"/><path d="M75.828,175.13c0.596,-1.986 6.155,-14.892 6.155,-14.892" style="fill:none;stroke:#fff;stroke-width:12.5px;"/><path d="M113.951,152.196c0.595,-1.985 6.155,-14.891 6.155,-14.891" style="fill:none;stroke:#fff;stroke-width:12.5px;"/><path d="M100.449,182.576c0.595,-1.986 6.155,-14.892 6.155,-14.892" style="fill:none;stroke:#fff;stroke-width:12.5px;"/><path d="M69.658,51.596c5.62,-24.713 27.744,-43.182 54.148,-43.182c30.647,0 55.529,24.882 55.529,55.529c-0,30.647 -24.882,55.529 -55.529,55.529c-20.413,-0 -38.269,-11.039 -47.917,-27.468" style="fill:none;stroke:#fff;stroke-width:12.5px;"/><path d="M85.079,103.705c-8.019,9.632 -20.098,15.767 -33.598,15.767c-24.119,-0 -43.701,-19.582 -43.701,-43.701c-0,-24.119 19.582,-43.7 43.701,-43.7c8.412,-0 16.272,2.382 22.942,6.507" style="fill:none;stroke:#fff;stroke-width:12.5px;"/></g></svg>