<?xml version="1.0" encoding="UTF-8" standalone="no"?><!DOCTYPE svg PUBLIC "-//W3C//DTD SVG 1.1//EN" "http://www.w3.org/Graphics/SVG/1.1/DTD/svg11.dtd"><svg width="100%" height="100%" viewBox="0 0 201 201" version="1.1" xmlns="http://www.w3.org/2000/svg" xmlns:xlink="http://www.w3.org/1999/xlink" xml:space="preserve" xmlns:serif="http://www.serif.com/" style="fill-rule:evenodd;clip-rule:evenodd;stroke-linecap:round;stroke-linejoin:round;stroke-miterlimit:1.5;"><g><path d="M11.052,28.245c26.038,-18.674 55.912,-20.87 91.053,-0c30.728,18.248 59.151,19.187 89.303,-0" style="fill:none;stroke:#fff;stroke-width:10.83px;"/><path d="M11.052,59.518c26.038,-18.674 55.912,-20.87 91.053,0c30.728,18.249 59.151,19.187 89.303,0" style="fill:none;stroke:#fff;stroke-width:10.83px;"/><path d="M11.052,28.245c26.038,-18.674 55.912,-20.87 91.053,-0c30.728,18.248 59.151,19.187 89.303,-0" style="fill:none;stroke:#fff;stroke-width:10.83px;"/><path d="M11.052,88.399c26.038,-18.674 55.912,-20.87 91.053,0c30.728,18.249 59.151,19.187 89.303,0" style="fill:none;stroke:#fff;stroke-width:10.83px;"/><path d="M11.052,117.28c26.038,-18.674 55.912,-20.87 91.053,0c30.728,18.249 59.151,19.187 89.303,0" style="fill:none;stroke:#fff;stroke-width:10.83px;"/><path d="M11.052,146.161c26.038,-18.674 55.912,-20.87 91.053,-0c30.728,18.249 59.151,19.187 89.303,-0" style="fill:none;stroke:#fff;stroke-width:10.83px;"/><path d="M11.052,175.042c26.038,-18.674 55.912,-20.87 91.053,-0c30.728,18.249 59.151,19.187 89.303,-0" style="fill:none;stroke:#fff;stroke-width:10.83px;"/></g></svg>