<?xml version="1.0" encoding="UTF-8" standalone="no"?><!DOCTYPE svg PUBLIC "-//W3C//DTD SVG 1.1//EN" "http://www.w3.org/Graphics/SVG/1.1/DTD/svg11.dtd"><svg width="100%" height="100%" viewBox="0 0 201 201" version="1.1" xmlns="http://www.w3.org/2000/svg" xmlns:xlink="http://www.w3.org/1999/xlink" xml:space="preserve" xmlns:serif="http://www.serif.com/" style="fill-rule:evenodd;clip-rule:evenodd;stroke-linecap:round;stroke-linejoin:round;stroke-miterlimit:1.5;"><g><path d="M12.239,56.298c-6.243,2.398 3.649,15.052 14.413,8.525l21.002,-15.974l18.569,-14.162c10.765,-6.527 20.033,6.127 13.79,8.525" style="fill:none;stroke:#fff;stroke-width:9.17px;"/><path d="M12.239,56.298c-6.243,2.398 3.649,15.052 14.413,8.525l21.002,-15.974l18.569,-14.162c10.765,-6.527 20.033,6.127 13.79,8.525" style="fill:none;stroke:#fff;stroke-width:9.17px;"/><path d="M64.841,56.298c-6.243,2.398 3.648,15.052 14.413,8.525l21.001,-15.974l18.57,-14.162c10.764,-6.527 20.032,6.127 13.79,8.525" style="fill:none;stroke:#fff;stroke-width:9.17px;"/><path d="M120.304,56.298c-6.243,2.398 3.649,15.052 14.413,8.525l21.001,-15.974l18.57,-14.162c10.764,-6.527 20.032,6.127 13.79,8.525" style="fill:none;stroke:#fff;stroke-width:9.17px;"/><path d="M12.239,107.682c-6.243,2.398 3.649,15.052 14.413,8.525l21.002,-15.974l18.569,-14.162c10.765,-6.526 20.033,6.127 13.79,8.525" style="fill:none;stroke:#fff;stroke-width:9.17px;"/><path d="M64.841,107.682c-6.243,2.398 3.648,15.052 14.413,8.525l21.001,-15.974l18.57,-14.162c10.764,-6.526 20.032,6.127 13.79,8.525" style="fill:none;stroke:#fff;stroke-width:9.17px;"/><path d="M120.304,107.682c-6.243,2.398 3.649,15.052 14.413,8.525l21.001,-15.974l18.57,-14.162c10.764,-6.526 20.032,6.127 13.79,8.525" style="fill:none;stroke:#fff;stroke-width:9.17px;"/><path d="M12.239,159.416c-6.243,2.399 3.649,15.052 14.413,8.525l21.002,-15.974l18.569,-14.162c10.765,-6.526 20.033,6.127 13.79,8.525" style="fill:none;stroke:#fff;stroke-width:9.17px;"/><path d="M64.841,159.416c-6.243,2.399 3.648,15.052 14.413,8.525l21.001,-15.974l18.57,-14.162c10.764,-6.526 20.032,6.127 13.79,8.525" style="fill:none;stroke:#fff;stroke-width:9.17px;"/><path d="M120.304,159.416c-6.243,2.399 3.649,15.052 14.413,8.525l21.001,-15.974l18.57,-14.162c10.764,-6.526 20.032,6.127 13.79,8.525" style="fill:none;stroke:#fff;stroke-width:9.17px;"/></g></svg>