<?xml version="1.0" encoding="UTF-8" standalone="no"?><!DOCTYPE svg PUBLIC "-//W3C//DTD SVG 1.1//EN" "http://www.w3.org/Graphics/SVG/1.1/DTD/svg11.dtd"><svg width="100%" height="100%" viewBox="0 0 201 201" version="1.1" xmlns="http://www.w3.org/2000/svg" xmlns:xlink="http://www.w3.org/1999/xlink" xml:space="preserve" xmlns:serif="http://www.serif.com/" style="fill-rule:evenodd;clip-rule:evenodd;stroke-linecap:round;stroke-linejoin:round;stroke-miterlimit:1.5;"><g><path d="M151.227,42.819c2.073,-0.38 4.208,-0.579 6.39,-0.579c19.457,-0 35.253,15.796 35.253,35.253c0,19.457 -15.796,35.253 -35.253,35.253" style="fill:none;stroke:#fff;stroke-width:10.42px;"/><path d="M56.891,54.796c-0.1,-1.109 -0.151,-2.231 -0.151,-3.366c0,-20.526 16.665,-37.191 37.192,-37.191c20.527,-0 37.192,16.665 37.192,37.191c-0,20.527 -16.665,37.192 -37.192,37.192" style="fill:none;stroke:#fff;stroke-width:10.42px;"/><path d="M93.932,88.622l-72.373,-0" style="fill:none;stroke:#fff;stroke-width:10.42px;"/><path d="M157.617,112.746l-149.843,-0" style="fill:none;stroke:#fff;stroke-width:10.42px;"/><path d="M128.611,138.962l-98.436,0" style="fill:none;stroke:#fff;stroke-width:10.42px;"/><path d="M128.611,138.962c12.482,0 22.616,10.134 22.616,22.617c0,12.482 -10.134,22.616 -22.616,22.616c-12.483,0 -22.617,-10.134 -22.617,-22.616" style="fill:none;stroke:#fff;stroke-width:10.42px;"/></g></svg>