<?xml version="1.0" encoding="UTF-8" standalone="no"?><!DOCTYPE svg PUBLIC "-//W3C//DTD SVG 1.1//EN" "http://www.w3.org/Graphics/SVG/1.1/DTD/svg11.dtd"><svg width="100%" height="100%" viewBox="0 0 237 220" version="1.1" xmlns="http://www.w3.org/2000/svg" xmlns:xlink="http://www.w3.org/1999/xlink" xml:space="preserve" xmlns:serif="http://www.serif.com/" style="fill-rule:evenodd;clip-rule:evenodd;stroke-linecap:round;stroke-linejoin:round;"><path d="M27.115,53.306l79.211,46.098c3.628,2.11 7.82,3.231 12.098,3.231c4.278,-0 8.47,-1.121 12.098,-3.231l79.212,-46.098m-171.205,116.892l159.791,-0c6.054,-0 11.861,-2.24 16.141,-6.225c4.281,-3.986 6.686,-9.392 6.686,-15.028l0,-85.013c0,-5.636 -2.405,-11.042 -6.686,-15.028c-4.28,-3.986 -10.087,-6.225 -16.141,-6.225l-159.791,0c-6.055,0 -11.861,2.239 -16.142,6.225c-4.281,3.986 -6.686,9.392 -6.686,15.028l0,85.013c0,5.636 2.405,11.042 6.686,15.028c4.281,3.985 10.087,6.225 16.142,6.225Z" style="fill:none;fill-rule:nonzero;stroke:#797bec;stroke-width:18.89px;"/></svg>