<?xml version="1.0" encoding="UTF-8" standalone="no"?><!DOCTYPE svg PUBLIC "-//W3C//DTD SVG 1.1//EN" "http://www.w3.org/Graphics/SVG/1.1/DTD/svg11.dtd"><svg width="100%" height="100%" viewBox="0 0 237 237" version="1.1" xmlns="http://www.w3.org/2000/svg" xmlns:xlink="http://www.w3.org/1999/xlink" xml:space="preserve" xmlns:serif="http://www.serif.com/" style="fill-rule:evenodd;clip-rule:evenodd;stroke-linecap:round;stroke-linejoin:round;"><path d="M162.402,51.673c-0,13.705 -5.444,26.848 -15.135,36.539c-9.691,9.69 -22.834,15.134 -36.539,15.134c-13.704,0 -26.848,-5.444 -36.538,-15.134c-9.691,-9.691 -15.135,-22.834 -15.135,-36.539c0,-13.704 5.444,-26.848 15.135,-36.538c9.69,-9.691 22.834,-15.135 36.538,-15.135c13.705,0 26.848,5.444 36.539,15.135c9.691,9.69 15.135,22.834 15.135,36.538Z" style="fill:#797bec;fill-rule:nonzero;"/><path d="M201.245,221.457l-172.499,-0c-5.936,-0 -9.287,-6.511 -5.581,-11.147c16.461,-20.625 54.936,-62.672 94.946,-62.672c40.26,-0 74.748,42.608 88.981,63.085c3.248,4.681 -0.148,10.734 -5.847,10.734Z" style="fill:#797bec;fill-rule:nonzero;stroke:#797bec;stroke-width:29.53px;"/></svg>