<?xml version="1.0" encoding="UTF-8" standalone="no"?><!DOCTYPE svg PUBLIC "-//W3C//DTD SVG 1.1//EN" "http://www.w3.org/Graphics/SVG/1.1/DTD/svg11.dtd"><svg width="100%" height="100%" viewBox="0 0 485 485" version="1.1" xmlns="http://www.w3.org/2000/svg" xmlns:xlink="http://www.w3.org/1999/xlink" xml:space="preserve" xmlns:serif="http://www.serif.com/" style="fill-rule:evenodd;clip-rule:evenodd;stroke-linecap:round;stroke-linejoin:round;stroke-miterlimit:1.5;"><path d="M437.648,40.366c0,-17.968 -14.588,-32.556 -32.556,-32.556l-141.023,-0c-17.968,-0 -32.556,14.588 -32.556,32.556l0,65.112c0,17.968 14.588,32.556 32.556,32.556l34.438,0l-25.767,55.811l56.687,-55.811l75.665,0c17.968,0 32.556,-14.588 32.556,-32.556l0,-65.112Z" style="fill:#e4b4aa;"/><text x="287.124px" y="97.154px" style="font-family:'CenturyGothic-Bold', 'Century Gothic', sans-serif;font-weight:700;font-size:70.833px;fill:#fff;">Hi!</text><g><path d="M81.502,466.942l339.732,-0c4.622,-95.625 -83.797,-218.723 -110.179,-237.173c-9.807,7.039 11.389,36.914 -2.876,45.491c-32.715,-11.194 -86.186,-12.472 -119.799,-1.176c3.017,-15.391 12.042,-33.53 6.381,-44.942c-40.578,14.917 -96.522,114.806 -113.259,237.8Z" style="fill:url(#_Linear1);"/><path d="M81.497,466.942c16.199,-119.058 69.156,-216.488 109.341,-236.117l3.923,-1.683c-54.123,75.49 -61.309,156.165 -52.354,237.8l-60.91,-0Z" style="fill:#8a8cf3;"/><path d="M178.963,277.095c4.489,-16.453 12.549,-31.102 7.295,-35.46c-10.674,14.902 -13.675,22.074 -21.72,40.189c5.305,-2.551 5.839,-2.631 14.425,-4.729Z" style="fill:#f8f8fe;"/><path d="M164.538,281.824c6.98,-17.008 17.506,-34.082 21.72,-40.189c-13.712,11.046 -30.456,30.057 -38.501,48.172c3.3,-2.274 4.079,-3.829 16.781,-7.983Z" style="fill:#9b9df5;"/><path d="M318.848,278.51c7.304,-10.794 -9.117,-32.517 -3.862,-36.875c13.244,14.434 20.7,27.668 28.745,45.783c-6.424,-3.218 -11.996,-5.851 -24.883,-8.908Z" style="fill:#f8f8fe;"/><path d="M36.698,466.942l81.415,-0c-3.976,-16.638 -6.621,-41.284 -8.128,-54.326c-4.724,-40.867 -78.83,-47.878 -74.91,30.232c0.418,8.329 0.941,16.377 1.623,24.094Z" style="fill:#b7b7f7;"/><path d="M36.7,466.942c-0.684,-7.718 -1.207,-15.765 -1.625,-24.094c-2.99,-59.59 39.431,-69.638 61.811,-52.908c-46.869,-10.339 -52.525,24.607 -42.293,77.002l-17.893,-0Z" style="fill:#9b9df5;"/><path d="M75.001,430.217c11.755,-0 21.299,7.867 21.299,14.42c0,6.554 -9.544,10.503 -21.299,10.503c-11.756,0 -21.3,-3.949 -21.3,-10.503c-0,-6.553 9.544,-14.42 21.3,-14.42Z" style="fill:#787aef;"/><ellipse cx="100.076" cy="424.929" rx="5.185" ry="8.52" style="fill:#787aef;"/><ellipse cx="85.565" cy="410.357" rx="5.907" ry="8.52" style="fill:#787aef;"/><path d="M64.369,401.825c3.116,-0.225 5.919,3.401 6.257,8.091c0.337,4.69 -1.918,8.68 -5.034,8.905c-3.116,0.224 -5.919,-3.402 -6.257,-8.092c-0.337,-4.69 1.918,-8.68 5.034,-8.904Z" style="fill:#787aef;"/><path d="M49.831,416.431c3.052,-0.405 6.032,3.052 6.65,7.713c0.618,4.662 -1.358,8.775 -4.41,9.179c-3.052,0.405 -6.031,-3.051 -6.649,-7.713c-0.618,-4.661 1.358,-8.774 4.409,-9.179Z" style="fill:#787aef;"/><ellipse cx="303.02" cy="353.741" rx="30.397" ry="39.496" style="fill:#fff;"/><ellipse cx="303.02" cy="353.741" rx="4.438" ry="23.098" style="fill:#e4b4aa;"/><path d="M281.616,296.433c-0,0 1.791,1.619 4.419,3.639c1.38,1.06 2.924,2.296 4.622,3.313c4.916,2.945 10.232,5.038 10.232,5.038c1.89,1.176 4.38,0.596 5.556,-1.295c1.177,-1.89 0.597,-4.38 -1.294,-5.556c-0,-0 -4.227,-3.843 -9.041,-6.952c-1.663,-1.073 -3.454,-1.912 -5.015,-2.681c-2.974,-1.465 -5.217,-2.357 -5.217,-2.357c-1.891,-1.176 -4.38,-0.596 -5.557,1.295c-1.176,1.89 -0.596,4.38 1.295,5.556Z" style="fill:#484bec;"/><ellipse cx="194.761" cy="353.741" rx="30.397" ry="39.496" style="fill:#fff;"/><ellipse cx="194.761" cy="353.741" rx="4.438" ry="23.098" style="fill:#e4b4aa;"/><path d="M211.903,289.582c0,0 -2.243,0.892 -5.217,2.357c-1.561,0.769 -3.352,1.608 -5.014,2.681c-4.815,3.109 -9.042,6.952 -9.042,6.952c-1.89,1.176 -2.471,3.666 -1.294,5.556c1.176,1.891 3.666,2.471 5.556,1.295c0,-0 5.316,-2.093 10.232,-5.038c1.698,-1.017 3.242,-2.253 4.622,-3.313c2.628,-2.02 4.419,-3.639 4.419,-3.639c1.891,-1.176 2.471,-3.666 1.295,-5.556c-1.176,-1.891 -3.666,-2.471 -5.557,-1.295Z" style="fill:#484bec;"/><path d="M244.716,376.838l-0.001,0l0.483,19.569c-1.172,5.524 -5.229,7.669 -9.172,7.173c-4.675,-0.587 -9.047,-4.365 -8.957,-10.275c0.037,-0.468 -0.312,-0.878 -0.779,-0.916c-0.468,-0.038 -0.878,0.311 -0.916,0.779c-1.098,7.461 4.098,12.827 9.931,14.276c4.594,1.141 9.585,-0.162 12.886,-4.595l0.324,0.308c3.196,2.914 8.463,4.645 13.465,3.822c5.652,-0.93 11.073,-4.813 11.938,-13.609c0.074,-0.463 -0.242,-0.899 -0.706,-0.973c-0.463,-0.074 -0.899,0.242 -0.973,0.705c-1.553,6.987 -6.034,9.825 -10.667,10.056c-3.122,0.155 -6.244,-0.949 -8.425,-2.692c-1.185,-0.948 -2.035,-2.129 -2.23,-3.449c0.017,-0.123 0.026,-0.248 0.026,-0.373l0.488,-19.797l0,-0.008l0,0l0,-0.001c0,-1.854 -1.503,-3.357 -3.357,-3.357c-1.854,-0.001 -3.358,1.502 -3.359,3.356l0.001,0.001Z" style="fill:#484bec;"/><path d="M247.378,365.942c5.933,-0 11.976,-0.99 11.976,2.572c-0,3.562 -5.532,11.357 -11.465,11.357c-5.934,0 -10.955,-6.773 -10.955,-10.336c-0,-3.562 4.511,-3.593 10.444,-3.593Z" style="fill:#484bec;"/><path d="M172.389,396.32c14.385,7.121 23.273,18.539 19.835,25.484c-3.437,6.944 -17.906,6.801 -32.291,-0.319c-14.384,-7.12 -23.272,-18.539 -19.835,-25.483c3.438,-6.945 17.907,-6.802 32.291,0.318Z" style="fill:url(#_Radial2);"/><path d="M323.591,396.32c-14.385,7.121 -23.273,18.539 -19.835,25.484c3.437,6.944 17.906,6.801 32.291,-0.319c14.384,-7.12 23.272,-18.539 19.835,-25.483c-3.438,-6.945 -17.907,-6.802 -32.291,0.318Z" style="fill:url(#_Radial3);"/></g><path d="M6.546,465.87l463.46,0" style="fill:none;stroke:#6161ef;stroke-width:8.33px;"/><path d="M412.489,461.955c-0.285,-31.976 -16.652,-41.326 -38.965,-40.962c-19.328,-0.186 -29.788,5.444 -33.645,30.105c-0.005,17.188 11.763,15.457 31.363,14.917c2.661,-0.073 3.786,-0.691 6.727,-0.671c1.85,0.014 5.435,0.622 7.39,0.705c3.292,0.14 14.659,-3.958 14.659,-3.958l12.471,-0.136Z" style="fill:#5252ec;"/><path d="M412.489,461.955c-0.285,-31.976 -16.652,-41.326 -38.965,-40.962c-19.328,-0.186 -35.087,5.359 -38.943,30.019c-0.007,20.992 23.229,15.196 23.229,15.196c-2.861,-3.118 -4.604,-7.23 -2.28,-14.958c-0.036,19.592 19.21,15.585 22.439,14.094c-3.745,-0.857 -6.481,-13.338 -1.557,-17.093c-1.508,-0 -3.078,28.443 21.621,13.43c2.037,-1.238 2.014,-8.692 2.014,-8.692c-0,0 1.265,0.501 1.048,5.172c-0.152,3.291 -1.077,3.93 -1.077,3.93l12.471,-0.136Z" style="fill:#a8a8f5;"/><path d="M346.444,466.531c-9.589,-21.48 1.717,-37.346 33.182,-45.374c-1.977,-0.147 -4.014,-0.198 -6.102,-0.164c-19.328,-0.186 -35.087,5.359 -38.943,30.019c-0.004,10.647 5.972,14.403 11.863,15.519Z" style="fill:#8c8cf2;"/><defs><linearGradient id="_Linear1" x1="0" y1="0" x2="1" y2="0" gradientUnits="userSpaceOnUse" gradientTransform="matrix(264.997,-302.283,344.027,301.592,162.106,650.767)"><stop offset="0" style="stop-color:#9899f5;stop-opacity:1"/><stop offset="0.5" style="stop-color:#bebef8;stop-opacity:1"/><stop offset="1" style="stop-color:#e4e5fc;stop-opacity:1"/></linearGradient><radialGradient id="_Radial2" cx="0" cy="0" r="1" gradientUnits="userSpaceOnUse" gradientTransform="matrix(26.0631,12.901,-6.22808,12.5822,166.161,408.903)"><stop offset="0" style="stop-color:#484bec;stop-opacity:0.39"/><stop offset="1" style="stop-color:#484bec;stop-opacity:0"/></radialGradient><radialGradient id="_Radial3" cx="0" cy="0" r="1" gradientUnits="userSpaceOnUse" gradientTransform="matrix(-26.0631,12.901,6.22808,12.5822,329.819,408.903)"><stop offset="0" style="stop-color:#484bec;stop-opacity:0.39"/><stop offset="1" style="stop-color:#484bec;stop-opacity:0"/></radialGradient></defs></svg>