<?xml version="1.0" encoding="UTF-8" standalone="no"?><!DOCTYPE svg PUBLIC "-//W3C//DTD SVG 1.1//EN" "http://www.w3.org/Graphics/SVG/1.1/DTD/svg11.dtd"><svg width="100%" height="100%" viewBox="0 0 3544 3544" version="1.1" xmlns="http://www.w3.org/2000/svg" xmlns:xlink="http://www.w3.org/1999/xlink" xml:space="preserve" xmlns:serif="http://www.serif.com/" style="fill-rule:evenodd;clip-rule:evenodd;stroke-linejoin:round;stroke-miterlimit:2;"><ellipse cx="1805.74" cy="2743.81" rx="1773.67" ry="535.495" style="fill:url(#_Radial1);"/><g><ellipse cx="1840.29" cy="2743.81" rx="966.304" ry="155.008" style="fill:url(#_Radial2);"/><path d="M1747.18,1094.95c-97.825,14.4 -227.963,130.425 -262.067,238.266c-262.612,830.404 -148.967,967.3 0.433,1174.1c192.034,265.813 354.738,327.542 343.834,81.879c10.1,3.513 -4.104,3.142 6.591,2.1c-19.029,162.538 129.005,299.346 374.167,-203.862c15.446,-31.708 40.371,-106.604 57.367,-126.192c277.371,-319.7 344.154,-959.2 101.096,-1067.58c-5.85,-2.608 -122.659,-69.825 -140.955,4.496c-18.279,74.238 87.555,213.008 103.609,329.95c34.679,252.55 -56.017,603.025 -55.046,591.008c25.279,-311.604 -97.267,-645.466 -99.892,-654.85c-57.762,-206.425 -187.441,-311.995 -303.371,-369.391c-27.058,19.425 61.455,82.15 49.213,113.146c-90.267,-30.888 -139.883,-27.496 -232.625,3.67c8.325,-42.466 73.267,-85.258 57.646,-116.745Z" style="fill:url(#_Linear3);"/><ellipse cx="1670.5" cy="1518.19" rx="58.892" ry="25.521" style="fill:#4b4eec;fill-opacity:0.33;"/><ellipse cx="1951.31" cy="1518.19" rx="58.892" ry="25.521" style="fill:#4b4eec;fill-opacity:0.33;"/><path d="M2248.67,2295.26c-13.612,30.383 -28.195,70.954 -38.533,92.175c-34.225,70.25 -66.558,128.025 -96.825,175.021c-84.396,-27.092 -227.433,37.012 -269.067,118.941c-4.812,-13.475 -7.912,-28.625 -9.212,-44.72l0.387,-18.359c0.13,-6.496 0.263,-12.991 0.396,-19.491l0.154,-7.53c194.667,0.784 320.246,-118.779 412.7,-296.037Zm42.284,-216.95c-0.409,59.317 10.158,97.304 31.296,111.696c-17.525,25.537 -35.8,49.4 -54.746,71.237c-1.846,2.129 -3.788,4.913 -5.8,8.221l-0,-0.004c5.787,-50.033 11.058,-100.071 14.566,-150.108c0.634,0.108 6.205,-14.913 14.684,-41.042Z" style="fill:#484bec;fill-opacity:0.58;"/><ellipse cx="1821.19" cy="2147.5" rx="254.813" ry="299.746" style="fill:url(#_Linear4);"/><path d="M1693.34,1311.82c-4.517,-6.658 -1.775,-14.917 7.771,-15.487c26.296,-1.58 49.321,-8.6 68.154,-22.617c7.671,-5.708 13.358,1.354 15.487,7.771c2.13,6.421 -19.104,38.862 -32.3,42.55c-10.262,2.871 -55.316,-6.621 -59.112,-12.217Z" style="fill:#484bec;"/><path d="M1938.57,1306.48c1.492,-6.596 -2.654,-13.163 -9.25,-14.654c-25.691,0.229 -46.3,-6.28 -70.037,-15.842c-7.55,-4.375 -15.788,0.983 -14.654,9.25c0.921,6.7 22.812,36.804 36.308,39.187c10.492,1.85 56.142,-11.345 57.633,-17.941Z" style="fill:#484bec;"/><path d="M1793.23,1525.01l-0,0.058l0.1,35.425c-0.084,19.521 -16.93,30.663 -31.671,27.667c-13.579,-2.763 -24.563,-16.484 -23.084,-44.121c0.163,-1.521 -0.937,-2.888 -2.454,-3.054c-1.521,-0.163 -2.887,0.937 -3.054,2.454c-5.621,34.083 9.029,51.642 25.588,56.637c14.175,4.28 30.42,-0.608 40.862,-12.679c5.279,5.617 13.3,8.35 22.296,8.154c18.829,-0.42 42.696,-14.954 45.892,-43.941c0.25,-1.509 -0.775,-2.934 -2.284,-3.184c-1.508,-0.25 -2.933,0.771 -3.183,2.28c-4.183,18.833 -18.021,29.229 -31.346,31.987c-8.829,1.825 -17.471,0.208 -21.258,-5.879c-0.892,-1.433 -1.388,-3.1 -1.509,-4.996c1.063,-3.387 1.784,-7.037 2.092,-10.925c0.004,-0.104 0.008,-0.208 0.008,-0.312l0.48,-35.48l-0,-0.045c-0,-4.817 -3.896,-8.725 -8.713,-8.738c-4.817,-0.012 -8.733,3.875 -8.762,8.692Z" style="fill:#484bec;"/><path d="M1800.29,1506.39c18.133,0 34.613,2.308 34.613,12.925c-0,10.617 -16.905,24.4 -35.038,24.4c-18.133,0 -33.475,-11.117 -33.475,-21.733c0,-10.617 15.767,-15.592 33.9,-15.592Z" style="fill:#484bec;"/><path d="M1759.78,1435.95c-7.488,-11.33 -22.521,-19.871 -41.871,-24.746c-19.221,-4.842 -42.9,-6.404 -66.171,-4.367c-9.229,0.804 -18.392,2.229 -27.15,4.213c-9.421,2.133 -18.371,4.87 -26.512,8.133c-23.755,9.521 -40.65,23.108 -44.284,38.187c-1.196,3.88 0.984,8 4.867,9.196c3.879,1.196 8,-0.983 9.196,-4.866c3.333,-8.775 14.15,-14.513 27.8,-19.467c10.104,-3.663 21.916,-6.221 34.425,-8.196c7.741,-1.221 15.733,-2.162 23.766,-2.858c20.725,-1.784 41.734,-1.55 59.017,2.029c13.488,2.792 24.75,6.846 30.346,14.367c3.208,4.575 9.525,5.683 14.1,2.475c4.571,-3.209 5.679,-9.525 2.471,-14.1Z" style="fill:#484bec;"/><path d="M1865.16,1445c5.283,-7.512 16.467,-11.033 29.887,-13.258c17.221,-2.85 38.18,-2.125 58.838,0.612c7.971,1.059 15.9,2.359 23.575,3.925c12.375,2.525 24.058,5.584 34.025,9.646c13.508,5.504 24.179,11.634 27.346,20.384c1.133,3.895 5.221,6.141 9.116,5.008c3.9,-1.133 6.146,-5.221 5.013,-9.121c-3.333,-14.867 -19.729,-28.95 -42.942,-39.392c-7.983,-3.591 -16.779,-6.708 -26.054,-9.245c-8.65,-2.371 -17.712,-4.205 -26.858,-5.425c-23.254,-3.113 -46.992,-2.613 -66.221,1.425c-19.958,4.187 -35.317,12.57 -42.6,24.262c-3.083,4.658 -1.808,10.942 2.85,14.025c4.654,3.088 10.942,1.808 14.025,-2.846Z" style="fill:#484bec;"/><path d="M1455.51,1830.78c-39.55,-26.73 -122.667,160.254 -19.408,245.854c99.258,82.279 307.029,88.704 367.716,22.021c10.275,-11.292 9.567,-72.996 10.771,-95.046c4.117,-75.254 -113.383,-50.925 -124.333,9.5c-121.692,-30.871 -176.942,-143.267 -234.746,-182.329Z" style="fill:url(#_Linear5);"/><path d="M1397.05,2022.19c-9.787,-24.812 -12.204,-51.979 -10.1,-77.787c5.655,-69.375 44.95,-129.604 68.563,-113.629c37.683,25.358 74.392,81.75 128.95,126.558c29.112,23.912 63.296,44.567 105.529,55.354c5.546,-28.892 35.338,-49.571 64.471,-54.675c1.925,-0.337 3.854,-0.612 5.771,-0.812c4.096,-0.505 8.146,-0.696 12.083,-0.559c15.725,0.559 29.429,6.429 37.417,18.754c4.646,7.171 7.483,16.43 7.487,28.35c0.146,14.275 2.121,44.713 1.004,68.05c-0.733,15.375 -3.795,27.738 -7.858,32.813c-6.842,8.354 -15.571,15.925 -26.104,22.358c-8.958,5.471 -19.225,10.104 -30.467,13.8c-27.566,9.063 -61.05,12.842 -96.304,12.096c-79.217,-1.683 -167.9,-27.337 -222.112,-75.362c-11.763,-10.18 -20.896,-21.717 -28.092,-33.959c-4.05,-6.883 -7.446,-14.029 -10.238,-21.35Zm363.184,-64.991c-30.788,3.762 -64.184,25.062 -69.642,55.962c-0.017,0.096 -0.071,0.175 -0.15,0.225c-0.079,0.05 -0.175,0.067 -0.267,0.046c-42.504,-10.779 -76.941,-31.454 -106.166,-55.546c-54.496,-44.925 -90.9,-101.596 -128.496,-127.112c-23.617,-15.946 -62.625,44.308 -68.425,113.641c-2.158,25.829 0.425,52.829 9.962,77.775c2.863,7.279 6.367,14.363 10.575,21.146c7.417,11.946 17.142,22.842 29.205,32.417c46.625,36.129 115.57,55.383 182.041,59.062c23.067,1.275 45.771,0.509 67.167,-1.833c23.6,-2.583 45.433,-7.513 64.333,-14.258c7.217,-2.58 14.009,-5.363 20.313,-8.425c10.391,-5.055 19.537,-10.6 26.591,-17.609c3.259,-3.15 5.13,-11.891 7.009,-22.458c4.037,-22.721 6.004,-52.779 7.683,-66.775c1.892,-18.529 -4.05,-31.275 -14.487,-38.646c-9.784,-6.908 -23.259,-9.096 -37.246,-7.612Z" style="fill:url(#_Linear6);"/><path d="M2170.69,1830.78c39.546,-26.73 122.667,160.254 19.408,245.854c-99.258,82.279 -307.029,88.704 -367.716,22.021c-10.28,-11.292 -11.43,-64.088 -7.055,-92.538c11.98,-77.942 120.096,-48.217 120.613,6.992c121.696,-30.871 176.946,-143.267 234.75,-182.329Z" style="fill:url(#_Linear7);"/><path d="M1872.19,1958.85c1.567,0.05 3.129,0.154 4.692,0.312c29.667,3 58.708,24.85 59.567,53.263c42.079,-10.775 76.162,-31.355 105.208,-55.184c54.579,-44.771 91.325,-101.133 129.021,-126.466l0.004,-0c23.608,-16.017 63.004,44.2 68.767,113.612c2.77,33.438 -1.913,69.233 -20.571,99.138c-1.492,2.383 -3.075,4.725 -4.759,7.016c-6.345,9.596 -13.987,18.684 -23.358,26.9c-44.75,41.129 -113.746,67.45 -181.804,76.004c-13.542,1.705 -27.046,2.642 -40.279,2.617c-13.867,-0.029 -27.429,-1.133 -40.404,-2.975c-48.78,-6.929 -89.425,-24.404 -110.846,-49.937c-5.046,-6.071 -8.325,-21.813 -8.813,-40.305c-0.512,-19.404 1.221,-41.787 4.284,-57.108c6.633,-36.108 32.666,-48.825 59.291,-46.887Zm341.929,91.691c1.571,-2.366 3.063,-4.762 4.48,-7.187c17.745,-30.35 23.045,-65.571 20.304,-98.921c-5.696,-69.292 -44.6,-129.558 -68.221,-113.658l-0.004,-0c-37.579,25.541 -73.95,82.241 -128.417,127.204c-29.225,24.125 -63.675,44.829 -106.196,55.637c-0.158,0.042 -0.325,0.004 -0.454,-0.091c-0.129,-0.1 -0.204,-0.255 -0.204,-0.417c-0.125,-28.429 -29.092,-49.771 -58.546,-53.771c-1.554,-0.212 -3.112,-0.375 -4.671,-0.487c-25.521,-0.842 -50.133,12.795 -54.45,47.633c-1.633,15.096 -1.375,36.917 0.817,55.65c1.729,14.783 4.279,27.517 8.758,32.017c21.121,21.404 59.246,32.441 103.538,36.212c12.25,1.042 24.966,1.442 37.979,1.579c12.521,0.134 25.287,0.029 38.187,-0.612c66.288,-3.288 135.263,-20.346 182.396,-55.517c9.721,-7.617 17.979,-16.071 24.704,-25.271Z" style="fill:url(#_Linear8);"/><path d="M1747.18,1094.95c-0,-0 -324.429,196.412 -258.904,531.058c6.345,32.408 16.337,105.987 78.1,165.237c100.679,96.575 13.808,105.246 -68.646,56.509c-157.671,-93.204 -131.829,97.408 -34.384,193.329c27.317,26.887 125.817,90.292 187.25,94.033c34.667,2.113 56.675,15.767 53.521,16.146c-66.041,7.896 -179.816,-19.783 -211.95,-36.921c-44.804,-23.9 -52.283,-33.941 -51.883,-34.341c-80.179,351.629 66.812,506.375 389.096,509.195l-9.379,101.055l-0.005,0.008c-59.483,-115.592 -165.166,-118.433 -253.583,-80.929c-26.054,-29.55 -53.154,-63.659 -80.867,-102.013c-149.4,-206.8 -263.045,-343.696 -0.433,-1174.1c34.104,-107.841 173.5,-226.283 262.067,-238.266Z" style="fill:#4b4eec;fill-opacity:0.55;"/></g><path d="M1821.19,935.991c140.633,0 254.812,17.729 254.812,39.571c0,21.842 -114.179,39.575 -254.812,39.575c-140.633,-0 -254.808,-17.733 -254.808,-39.575c-0,-21.842 114.175,-39.571 254.808,-39.571Zm-0,19.788c70.317,-0 127.408,8.862 127.408,19.783c0,10.921 -57.091,19.787 -127.408,19.787c-70.317,0 -127.404,-8.866 -127.404,-19.787c-0,-10.921 57.087,-19.783 127.404,-19.783Z" style="fill:#f8b071;"/><defs><radialGradient id="_Radial1" cx="0" cy="0" r="1" gradientUnits="userSpaceOnUse" gradientTransform="matrix(1585.4,-3.2824e-12,1.41267e-13,478.657,1805.74,2743.81)"><stop offset="0" style="stop-color:#fff;stop-opacity:1"/><stop offset="0.11" style="stop-color:#fff;stop-opacity:0.9"/><stop offset="0.56" style="stop-color:#fff;stop-opacity:0.62"/><stop offset="1" style="stop-color:#fff;stop-opacity:0"/></radialGradient><radialGradient id="_Radial2" cx="0" cy="0" r="1" gradientUnits="userSpaceOnUse" gradientTransform="matrix(863.738,-9.50154e-13,7.69625e-14,138.556,1840.29,2743.81)"><stop offset="0" style="stop-color:#484bec;stop-opacity:1"/><stop offset="0.72" style="stop-color:#484bec;stop-opacity:0.15"/><stop offset="1" style="stop-color:#484bec;stop-opacity:0"/></radialGradient><linearGradient id="_Linear3" x1="0" y1="0" x2="1" y2="0" gradientUnits="userSpaceOnUse" gradientTransform="matrix(731.175,-834.054,834.054,731.175,1566.38,2251.8)"><stop offset="0" style="stop-color:#9899f5;stop-opacity:1"/><stop offset="0.5" style="stop-color:#bebef8;stop-opacity:1"/><stop offset="1" style="stop-color:#e4e5fc;stop-opacity:1"/></linearGradient><linearGradient id="_Linear4" x1="0" y1="0" x2="1" y2="0" gradientUnits="userSpaceOnUse" gradientTransform="matrix(-405.594,33.6455,-33.6455,-405.594,2032.19,2113.86)"><stop offset="0" style="stop-color:#e5e6ff;stop-opacity:0.52"/><stop offset="1" style="stop-color:#eaeafd;stop-opacity:0.52"/></linearGradient><linearGradient id="_Linear5" x1="0" y1="0" x2="1" y2="0" gradientUnits="userSpaceOnUse" gradientTransform="matrix(681.304,185.989,-185.989,681.304,1518.79,1931.27)"><stop offset="0" style="stop-color:#a4a5f6;stop-opacity:1"/><stop offset="1" style="stop-color:#484bec;stop-opacity:1"/></linearGradient><linearGradient id="_Linear6" x1="0" y1="0" x2="1" y2="0" gradientUnits="userSpaceOnUse" gradientTransform="matrix(426.788,0,0,426.788,1386.31,1986.1)"><stop offset="0" style="stop-color:#9c9df5;stop-opacity:1"/><stop offset="1" style="stop-color:#484bec;stop-opacity:1"/></linearGradient><linearGradient id="_Linear7" x1="0" y1="0" x2="1" y2="0" gradientUnits="userSpaceOnUse" gradientTransform="matrix(-853.579,90.53,-90.53,-853.579,2239.89,1986.1)"><stop offset="0" style="stop-color:#cacaf9;stop-opacity:1"/><stop offset="1" style="stop-color:#484bec;stop-opacity:1"/></linearGradient><linearGradient id="_Linear8" x1="0" y1="0" x2="1" y2="0" gradientUnits="userSpaceOnUse" gradientTransform="matrix(-426.787,5.22664e-14,-5.22664e-14,-426.787,2239.89,1986.1)"><stop offset="0" style="stop-color:#9c9df5;stop-opacity:1"/><stop offset="1" style="stop-color:#484bec;stop-opacity:1"/></linearGradient></defs></svg>